<svg viewBox="0 0 19 19" width="19" height="19" aria-hidden="true">
					      <path fill="#fff" d="M8.257 15.726a7.508 7.508 0 004.323-1.37 7.656 7.656 0 002.749-3.603 7.498 7.498 0 00-2.258-8.307A7.607 7.607 0 008.816.722a7.501 7.501 0 00-7.387 4.36A7.654 7.654 0 00.9 9.744a7.504 7.504 0 002.151 3.887c1.09 1.044 2.503 1.766 4 1.995.401.061.801.1 1.205.1.276 0 .539-.243.526-.527a.535.535 0 00-.526-.526c-.187 0-.375-.006-.56-.023a5.466 5.466 0 01-.26-.025l-.058-.007c-.105-.012.112.017.04.007-.052-.009-.105-.015-.157-.024a6.862 6.862 0 01-1.526-.433c-.032-.013-.089-.042.048.02l-.05-.022a8.242 8.242 0 01-.366-.173 7.104 7.104 0 01-.89-.539c-.068-.048-.133-.099-.2-.147l.04.032c-.015-.01-.03-.024-.045-.034a7.283 7.283 0 01-1.092-1.088c-.015-.02-.03-.036-.042-.055-.072-.088.046.063.014.02-.206-.28-.4-.565-.566-.87a7.101 7.101 0 01-.238-.474l-.046-.103-.023-.05c.065.139.03.07.015.035a6.773 6.773 0 01-.387-1.286c-.017-.084-.032-.17-.047-.254-.006-.038-.01-.076-.017-.114l.005.04c-.005-.03-.007-.057-.011-.086a6.898 6.898 0 01.002-1.644l.009-.071c0 .004-.02.14-.007.054l.02-.128A6.609 6.609 0 012.2 5.94c.029-.08.06-.158.092-.236a1.357 1.357 0 01-.015.036l.023-.05.057-.129a6.87 6.87 0 01.505-.911c.095-.143.196-.278.297-.417-.105.145-.004.006.02-.023l.07-.086a7.034 7.034 0 011.023-1.002c.015-.01.03-.023.044-.034a.447.447 0 00-.04.032c.076-.053.148-.112.223-.165a7.19 7.19 0 011.12-.644l.116-.05.05-.023c-.147.067-.059.025-.023.01a7.032 7.032 0 011.528-.427l.143-.021a109.658 109.658 0 01.002.002 6.982 6.982 0 011.642 0l.071.009c.072.008-.143-.021-.04-.005.049.007.095.015.144.021a7.085 7.085 0 011.524.434.604.604 0 00.017.006 5.496 5.496 0 01.366.173 6.615 6.615 0 01.875.532c.067.049.132.1.2.148-.14-.101-.02-.015.012.01l.118.097a7.285 7.285 0 01.981 1.004c.01.015.023.03.034.044a7.139 7.139 0 01.28.4c.189.29.357.598.5.913l.051.116c.015.034.04.107-.015-.036.007.017.015.034.021.053a6.861 6.861 0 01.38 1.275c.018.084.033.17.048.255l.019.128c.01.072-.017-.145-.007-.04l.01.087a7.237 7.237 0 01-.006 1.641l-.006.057c.017-.156.013-.088.006-.055l-.02.143c-.015.09-.032.18-.049.27a6.888 6.888 0 01-.385 1.256l.02-.048a.605.605 0 00-.026.065 6.259 6.259 0 01-.29.587 7.536 7.536 0 01-.49.758c-.022.032-.14.175-.024.036-.217.263-.436.52-.684.757a6.782 6.782 0 01-.478.417l-.055.042a7.88 7.88 0 01-.183.133 7.083 7.083 0 01-1.12.64l-.103.046c-.015.006-.103.044-.015.006.089-.038-.008.004-.027.01a6.787 6.787 0 01-1.528.423l-.128.02a5.482 5.482 0 01-.28.027 6.737 6.737 0 01-.545.021c-.276 0-.539.242-.526.526.02.282.237.524.532.522z"></path>
					      <path fill="#fff" d="M12.839 13.537l1.58 1.58 2.515 2.516.573.572c.196.196.551.209.745 0a.536.536 0 000-.745l-1.58-1.58a85268.976 85268.976 0 00-3.088-3.088c-.196-.195-.551-.208-.745 0a.536.536 0 000 .745z"></path>
					    </svg>